<svg xmlns="http://www.w3.org/2000/svg" xmlns:xlink="http://www.w3.org/1999/xlink" fill="none" version="1.1" width="270.8983459472656" height="45" viewBox="0 0 270.8983459472656 45"><path d="M270.89835,45L262.00949,45L262.00949,7.9629631L256.02179,7.9629631L256.02179,0L270.89835,0L270.89835,45ZM249.54034,45L240.89836,45L240.89836,26.666664L222.44156,26.666664L222.44156,45L213.79959,45L213.79959,1.9135792L222.44156,1.9135792L222.44156,19.629631L240.89836,19.629631L240.89836,1.9135792L249.54034,1.9135792L249.54034,45ZM36.411774,24.450319C36.411774,14.431186,28.21431,6.2444277,18.205887,6.2444277C8.1974659,6.2444277,0,14.431185,0,24.450319C0,34.469456,8.1974783,42.656208,18.205887,42.656208C28.225021,42.656208,36.411774,34.458736,36.411774,24.450319ZM72.812866,20.806997C72.812866,12.791689,66.254898,6.2444277,58.250313,6.2444277C50.245712,6.2444277,43.687744,12.791689,43.687733,20.806997L43.687733,41.734665C43.687733,42.238304,44.094925,42.645496,44.598557,42.645496L49.152718,42.645496C49.656349,42.645496,50.063541,42.238304,50.063541,41.734665L50.063541,20.806995C50.063541,18.567425,50.985092,16.520735,52.474564,15.03126C53.953331,13.541786,56.000023,12.620239,58.250301,12.620239C60.489868,12.620239,62.53656,13.541786,64.026047,15.03126C65.515518,16.510021,66.437057,18.556709,66.437057,20.806997L66.437057,41.734665C66.437057,42.238304,66.844254,42.645496,67.3479,42.645496L71.902046,42.645496C72.405685,42.645496,72.812866,42.238304,72.812866,41.734665L72.812866,20.806997ZM109.68546,27.622154L115.40761,27.622154L115.43978,27.622152C115.90056,27.622152,116.2756,27.279251,116.33989,26.829191C116.44705,26.057665,116.50064,25.253992,116.50064,24.450319C116.50064,14.431185,108.30315,6.2444277,98.294739,6.2444277C88.275604,6.2444277,80.088852,14.4419,80.088852,24.450319C80.088852,34.469452,88.286331,42.656208,98.294739,42.656208C104.65984,42.656208,110.28555,39.34507,113.54312,34.362297Q113.76814,34.040825,113.67171,33.655064C113.61812,33.397884,113.4681,33.205006,113.24306,33.076416L109.289,30.793985C108.87109,30.558243,108.34602,30.676111,108.07812,31.072592C107.64951,31.683384,107.1673,32.272743,106.64223,32.797813C104.4991,34.95166,101.54158,36.280399,98.294724,36.280399C95.047882,36.280399,92.090363,34.940941,89.947235,32.797813C88.832809,31.683384,87.932693,30.354641,87.332611,28.875885C87.214729,28.586563,87.246887,28.286526,87.418335,28.029346C87.58979,27.761456,87.857681,27.622154,88.168434,27.622154L109.68546,27.622154ZM144.75764,7.7446189C142.81812,6.790926,140.64282,6.2444277,138.33896,6.2444277C130.33438,6.2444277,123.7764,12.791689,123.77638,20.806997L123.77638,41.734665C123.77638,42.238304,124.18359,42.645496,124.6872,42.645496L129.24136,42.645496C129.745,42.645496,130.15219,42.238304,130.15219,41.734665L130.15219,20.806999C130.15219,18.567425,131.07373,16.520737,132.5632,15.031262C134.04198,13.541786,136.08867,12.620241,138.33896,12.620241C139.5284,12.620241,140.66425,12.877417,141.69295,13.348904C142.12158,13.541786,142.62521,13.381053,142.86096,12.973858L145.1434,9.0197811C145.272,8.794754,145.30414,8.5482931,145.22914,8.3018332C145.15413,8.0446577,144.99338,7.8624926,144.75764,7.7446189ZM183.83762,24.450319C183.83762,14.431186,175.64014,6.2444277,165.63173,6.2444277C155.62329,6.2444277,147.42583,14.431185,147.42583,24.450319C147.42583,34.469456,155.62329,42.656208,165.63173,42.656208C175.65085,42.656208,183.83762,34.458736,183.83762,24.450319ZM9.8584023,16.092112C12.001526,13.938263,14.959044,12.609524,18.205887,12.609524C21.452734,12.609524,24.410252,13.94898,26.553375,16.092113C28.707233,18.235243,30.035963,21.192762,30.035963,24.439606C30.035963,27.686445,28.69651,30.643965,26.553375,32.787098C24.410252,34.940937,21.452734,36.269684,18.205887,36.269684C14.959044,36.269684,12.001526,34.930225,9.8584023,32.787098C7.7045565,30.643965,6.3758125,27.686445,6.3758125,24.439606C6.3758125,21.19276,7.7152662,18.235241,9.8584023,16.092112ZM157.28423,16.092112C159.42734,13.938263,162.38486,12.609524,165.63173,12.609524C168.87856,12.609524,171.83609,13.94898,173.9792,16.092113C176.13306,18.235243,177.46181,21.192762,177.46181,24.439606C177.46181,27.686445,176.12233,30.643965,173.9792,32.787098C171.83609,34.940937,168.87856,36.269684,165.63173,36.269684C162.38486,36.269684,159.42734,34.930225,157.28423,32.787098C155.13037,30.643965,153.80164,27.686445,153.80164,24.439606C153.80164,21.19276,155.14108,18.235241,157.28423,16.092112ZM108.42102,21.267775L88.179161,21.267775C87.857689,21.267775,87.58979,21.128475,87.418335,20.860582C87.246887,20.603407,87.214752,20.303368,87.332611,20.014046C87.943413,18.535284,88.832809,17.206543,89.947235,16.092117C92.090363,13.938272,95.047882,12.609531,98.294724,12.609531C101.54158,12.609531,104.4991,13.948988,106.64223,16.092117C107.75665,17.206543,108.65678,18.535284,109.25685,20.014044C109.37471,20.303368,109.34256,20.603405,109.17111,20.86058C108.99968,21.128475,108.73177,21.267775,108.42102,21.267775Z" fill-rule="evenodd" fill="#333844" fill-opacity="1"/></svg>