<svg xmlns="http://www.w3.org/2000/svg" xmlns:xlink="http://www.w3.org/1999/xlink" fill="none" version="1.1" width="96.31941986083984" height="16" viewBox="0 0 96.31941986083984 16"><path d="M96.31942,16L93.158928,16L93.158928,2.8312757L91.029968,2.8312757L91.029968,0L96.31942,0L96.31942,16ZM88.725456,16L85.652756,16L85.652756,9.4814806L79.090332,9.4814806L79.090332,16L76.017632,16L76.017632,0.68038374L79.090332,0.68038374L79.090332,6.9794245L85.652756,6.9794245L85.652756,0.68038374L88.725456,0.68038374L88.725456,16ZM12.946408,8.6934471C12.946408,5.1310883,10.031754,2.2202411,6.4732041,2.2202411C2.9146545,2.2202411,0,5.1310878,0,8.6934471C0,12.255807,2.914659,15.166652,6.4732041,15.166652C10.035563,15.166652,12.946408,12.251995,12.946408,8.6934471ZM25.889021,7.3980441C25.889021,4.5481563,23.557297,2.2202411,20.711224,2.2202411C17.865143,2.2202411,15.53342,4.5481563,15.533417,7.3980441L15.533417,14.838992C15.533417,15.018064,15.678195,15.162844,15.857265,15.162844L17.476522,15.162844C17.655592,15.162844,17.800371,15.018064,17.800371,14.838992L17.800371,7.3980432C17.800371,6.6017509,18.128035,5.8740392,18.657623,5.3444476C19.183407,4.8148575,19.911119,4.4871964,20.711218,4.4871964C21.507509,4.4871964,22.235222,4.8148575,22.764816,5.3444476C23.294407,5.8702297,23.622066,6.5979409,23.622066,7.3980441L23.622066,14.838992C23.622066,15.018064,23.766846,15.162844,23.945921,15.162844L25.565172,15.162844C25.744246,15.162844,25.889021,15.018064,25.889021,14.838992L25.889021,7.3980441ZM38.999275,9.8212109L41.033817,9.8212109L41.045254,9.8212099C41.209087,9.8212099,41.342438,9.6992903,41.365295,9.5392675C41.403397,9.2649479,41.422451,8.9791975,41.422451,8.6934471C41.422451,5.1310878,38.50779,2.2202411,34.949242,2.2202411C31.386881,2.2202411,28.476038,5.1348982,28.476038,8.6934471C28.476038,12.255805,31.390696,15.166652,34.949242,15.166652C37.212387,15.166652,39.212643,13.989359,40.370892,12.217706C40.424225,12.141505,40.439465,12.057685,40.416607,11.966246C40.397552,11.874804,40.344215,11.806224,40.264202,11.760504L38.858315,10.948973C38.709724,10.865153,38.523033,10.907062,38.427776,11.048033C38.275383,11.265203,38.103928,11.474753,37.917236,11.661445C37.155239,12.427257,36.103676,12.899698,34.949234,12.899698C33.794804,12.899698,32.74324,12.423446,31.981241,11.661445C31.585001,11.265203,31.264957,10.792762,31.051596,10.266982C31.009684,10.164111,31.021116,10.057432,31.082075,9.9659901C31.143036,9.8707399,31.238287,9.8212109,31.348776,9.8212109L38.999275,9.8212109ZM51.469387,2.7536423C50.779778,2.4145515,50.00634,2.2202411,49.187187,2.2202411C46.341114,2.2202411,44.009388,4.5481563,44.00938,7.3980441L44.00938,14.838992C44.00938,15.018064,44.154167,15.162844,44.333229,15.162844L45.952484,15.162844C46.131557,15.162844,46.276333,15.018064,46.276333,14.838992L46.276333,7.3980446C46.276333,6.6017509,46.603996,5.8740401,47.133587,5.344449C47.65937,4.8148575,48.387081,4.4871969,49.187187,4.4871969C49.6101,4.4871969,50.013958,4.5786371,50.379715,4.7462769C50.53212,4.8148575,50.711189,4.7577076,50.79501,4.6129274L51.606544,3.2070332C51.652271,3.1270237,51.663696,3.0393932,51.637032,2.9517629C51.610359,2.8603227,51.553204,2.795553,51.469387,2.7536423ZM65.364487,8.6934471C65.364487,5.1310883,62.449829,2.2202411,58.891285,2.2202411C55.332729,2.2202411,52.418072,5.1310878,52.418072,8.6934471C52.418072,12.255807,55.332729,15.166652,58.891285,15.166652C62.45364,15.166652,65.364487,12.251995,65.364487,8.6934471ZM3.5052097,5.7216396C4.2672095,4.9558272,5.3187709,4.4833865,6.4732041,4.4833865C7.6276393,4.4833865,8.6792011,4.9596376,9.4412003,5.7216406C10.207017,6.4836421,10.679454,7.5352044,10.679454,8.6896381C10.679454,9.8440695,10.203204,10.895633,9.4412003,11.657635C8.6792011,12.423445,7.6276393,12.895888,6.4732041,12.895888C5.3187709,12.895888,4.2672095,12.419636,3.5052097,11.657635C2.7393978,10.895633,2.2669556,9.8440695,2.2669556,8.6896381C2.2669556,7.5352035,2.7432058,6.4836411,3.5052097,5.7216396ZM55.923279,5.7216396C56.68528,4.9558272,57.736843,4.4833865,58.891285,4.4833865C60.045712,4.4833865,61.097279,4.9596376,61.859272,5.7216406C62.625088,6.4836421,63.097534,7.5352044,63.097534,8.6896381C63.097534,9.8440695,62.621273,10.895633,61.859272,11.657635C61.097279,12.423445,60.045712,12.895888,58.891285,12.895888C57.736843,12.895888,56.68528,12.419636,55.923279,11.657635C55.157467,10.895633,54.685028,9.8440695,54.685028,8.6896381C54.685028,7.5352035,55.161274,6.4836411,55.923279,5.7216396ZM38.549698,7.5618753L31.352591,7.5618753C31.238291,7.5618753,31.143036,7.5123467,31.082075,7.4170961C31.021116,7.3256564,31.009689,7.2189751,31.051596,7.1161051C31.268768,6.5903239,31.585001,6.1178823,31.981241,5.721642C32.74324,4.9558301,33.794804,4.4833889,34.949234,4.4833889C36.103676,4.4833889,37.155239,4.95964,37.917236,5.721642C38.313477,6.1178823,38.633522,6.5903239,38.846882,7.1161051C38.888786,7.2189751,38.877357,7.3256555,38.816399,7.4170952C38.755444,7.5123467,38.660183,7.5618753,38.549698,7.5618753Z" fill-rule="evenodd" fill="#333844" fill-opacity="1"/></svg>